<svg width="100%" height="100%"
preserveAspectRatio="xMinYMin slice" viewBox="0 0 262 525" fill="none" xmlns="http://www.w3.org/2000/svg">
<mask id="mask0" style="mask-type:alpha" maskUnits="userSpaceOnUse" x="0" y="0" width="262" height="525">
<rect x="0.159224" y="0.159224" width="261.446" height="523.847" rx="25.3166" fill="#1D1D1D" stroke="url(#paint0_linear)" stroke-width="0.318448"/>
</mask>
<g mask="url(#mask0)">
<path d="M-7 -6L-7 531H282L282 -6H-7Z" fill="url(#paint1_linear)"/>
<path d="M-35.7843 343.781L-32.8629 341.509L-30.379 343.216L-21.0926 336.344L-17.0563 336.485L-9.64697 328.104H-4.39693L-1.36264 323.038L3.50635 320.498L10.8875 310L26.2989 335.639L31.3513 336.344L32.5368 342.214L43.926 349.185L44.6458 355.676L48.8797 360.614L50.6579 367.613L61.2285 368.022L73.7609 375.783L74.2831 382.838L79.8154 386.62L84.0493 391.375L95.7066 388.454L108.747 398.487H113.687L116.975 404.3L122.775 402.889L134.856 414.418H145.85L150.14 419.356L160.965 423.618L165.622 422.418L184.929 436.049L212.238 459.331L-38 460.954L-35.7843 343.781Z" fill="#F4815F"/>
<g style="mix-blend-mode:screen" opacity="0.5">
<g style="mix-blend-mode:screen" opacity="0.5">
<path d="M18.0345 320.489L16.9761 332.596L17.5123 336.829L13.4478 340.709L12.8692 345.888L8.86108 349.881L18.0345 349.063L22.5083 346.833L33.4459 346.128L18.0345 320.489Z" fill="#F9B69C"/>
</g>
<g style="mix-blend-mode:screen" opacity="0.5">
<path d="M39.684 352.703L31.7948 358.121L29.3251 363.399L22.6214 366.348L20.6597 371.174L35.3937 367.928L39.7969 361.931L47.4462 367.053L51.793 366.164L51.0732 359.674L39.684 352.703Z" fill="#F9B69C"/>
</g>
<g style="mix-blend-mode:screen" opacity="0.5">
<path d="M57.8051 378.102L52.8514 380.684H64.1418L67.9382 384.071L75.8697 386.54L76.5189 391.747L81.4303 393.327L80.9081 386.272L68.3757 378.511L57.8051 378.102Z" fill="#F9B69C"/>
</g>
<g style="mix-blend-mode:screen" opacity="0.5">
<path d="M91.1965 401.864L98.4788 403.035L102.36 401.864L105.662 404.686L115.894 408.976L102.854 398.943L91.1965 401.864Z" fill="#F9B69C"/>
</g>
<g style="mix-blend-mode:screen" opacity="0.5">
<path d="M36.551 374.871L40.2627 383.097H43.3393L50.3535 391.295L62.7447 393.115L71.2125 401.441L77.0412 403.148L80.386 414.493L71.2125 407.565H60.275L58.4685 400.03L46.1196 398.858L40.2627 401.793L37.5954 397.772L41.1236 391.281L35.2244 386.766L36.551 374.871Z" fill="#F9B69C"/>
</g>
</g>
<path d="M-37.006 394.216L-27.1269 391.394L-21.9474 394.216L-16.4434 391.394L-9.03405 399.042L0.87328 400.326L4.37331 405.674L15.4802 406.563L23.2142 411.205L28.8594 410.09L33.4461 416.44L40.4603 421.858L51.6942 424.906L51.793 428.9H61.785L68.3758 423.03L72.3698 424.666L81.4303 424.201L103.545 432.427L98.253 445.352V462.497H-41L-37.006 394.216Z" fill="#C75378"/>
<path d="M46.4583 441.359L59.908 436.773L63.8032 439.073L68.7286 436.773L76.8436 439.073L83.5472 432.187H93.0735L96.1643 428.871L101.273 423.255L109.572 421.379L113.453 418.119L127.058 417.258L131.997 418.43L135.906 415.142L142.794 408.976L147.521 410.203L153.167 407.579L158.995 403.614L162.227 397.504H165.628L175.945 385.27L199.034 383.859L225.383 367.166L247.089 375.52L255.303 368.337L279.337 363.399V457.939L172.925 481.899L97.1804 483.112L26.6577 448.541L39.4441 441.712L46.4583 441.359Z" fill="#A65574"/>
<g style="mix-blend-mode:screen" opacity="0.58">
<g style="mix-blend-mode:screen" opacity="0.58">
<path d="M165.628 397.504H169.947L172.77 393.623H178.344L184.568 387.034L199.034 383.859L175.945 385.27L165.628 397.504Z" fill="#63BACD"/>
</g>
<g style="mix-blend-mode:screen" opacity="0.58">
<path d="M93.0736 432.187L98.366 431.369L100.483 428.081L107.539 428.9L114.243 424.554H125.886L128.243 421.732H114.003L113.453 418.119L109.572 421.379L101.273 423.255L93.0736 432.187Z" fill="#63BACD"/>
</g>
<g style="mix-blend-mode:screen" opacity="0.58">
<path d="M131.997 418.43L138.475 417.498L141.298 413.971H149.638L155.763 414.563L159.292 410.796L158.233 407.974L158.995 403.614L153.167 407.579L147.522 410.203L142.794 408.976L131.997 418.43Z" fill="#63BACD"/>
</g>
</g>
<path d="M56.1397 462.539L67.1478 457.12H80.3858L90.0109 453.198L98.2529 455.949L121.06 444.308L128.243 446.777H149.681L159.644 443.01L167.632 445.606L188.294 454.778L210.832 462.539L202.915 488.869L31.2726 490.28L56.1397 462.539Z" fill="#6D5670"/>
<path d="M227.824 414.563L225.002 412.447L223.421 414.563H220.599L219.724 416.863H217.607L214.05 421.097H211.623L210.395 423.919H208.109V426.571H206.697L204.961 428.688H202.844L200.911 431.863H199.33L197.044 434.516H194.687L193.276 436.11H191.54L189.959 439.285H188.195L185.909 443.165H182.183L179.741 445.818C179.741 445.818 177.667 445.296 177.385 445.818C177.102 446.34 174.985 449.698 174.985 449.698L170.046 450.051C170.046 450.051 168.437 452.704 167.294 452.521C166.151 452.337 164.217 451.998 164.217 451.998L158.925 454.468H157.203L155.933 456.768L152.235 456.951L150.655 459.957C148.235 461.06 145.879 462.299 143.598 463.668C142.892 464.373 139.872 467.732 139.872 467.732H135.13C134.241 468.452 133.297 469.103 132.308 469.679C130.815 470.137 129.277 470.435 127.721 470.568H123.84L121.554 473.221H106.029L103.207 471.81L99.8618 472.162L97.9284 469.524L95.4586 469.171L93.5674 467.379H91.6622L89.0231 465.545L85.3255 466.25L81.275 463.964L78.4524 464.67L75.277 462.835H73.6399L71.0007 461.325L67.6701 462.821L63.9442 458.842L59.0047 459.548L54.9684 455.131L52.1458 456.02L50.5651 451.617L45.0046 451.265L39.2747 446.509L35.0408 446.693L32.8674 442.107L30.6234 442.813L29.565 441.754L27.0952 442.813L23.1576 438.932L21.45 439.638L19.1637 434.882L17.583 435.419L15.8189 433.655L13.462 433.838L10.5265 429.605H6.0668L4.16154 426.388L2.75024 425.866L-0.142921 426.402V423.171H-3.95343L-7.29822 417.527L-20.7338 412.419L-28.6371 404.164V531.44H227.824V414.563Z" fill="#504F6D"/>
<path d="M-30.119 419.855L-28.1008 419.319V416.228L-26.9435 413.406L-25.8709 416.623V419.22L-24.883 421.689L-23.5846 420.109L-22.5262 416.003L-21.7782 419.347L-21.4112 423.241H-18.9132L-18.0523 421.576V420.814L-17.2479 418.091L-16.881 421.308L-17.4314 422.056L-16.881 423.227L-15.8225 422.479V421.365L-15.385 419.502L-14.891 421.788V422.719L-14.143 423.89L-13.3386 425.132V426.275L-12.5624 425.993V424.822L-11.9414 424.271L-12.1672 423.396L-11.7156 422.225L-11.1229 423.636L-11.4616 424.046L-11.1934 425.217V425.795L-10.7841 426.628L-10.4595 425.965L-10.5301 425.499L-10.1632 424.666L-9.99381 425.739L-10.1632 426.134L-9.90913 427.023L-9.45752 426.543L-9.17526 425.287L-9.03413 426.515L-8.59662 427.474L-8.41315 428.138L-8.04622 427.376L-7.5946 426.331L-7.41113 428.138V428.97L-7.17121 429.422L-6.35266 430.565L-6.19741 431.185L-5.67523 430.847L-5.51999 429.647L-5.02603 428.716L-4.87079 430.226V431.341C-4.87079 431.341 -4.43329 432.089 -4.40506 432.173C-4.37683 432.258 -4.30627 433.161 -4.30627 433.161L-3.78409 432.455V431.835L-3.62885 430.847L-3.41715 431.835L-3.16312 432.512L-3.31836 433.528L-2.64093 434.854L-2.33045 434.078L-2.48569 433.147L-2.14698 431.439L-1.70948 433.147V433.768L-1.42722 435.038L-1.24375 436.237C-1.0171 435.877 -0.809813 435.505 -0.622775 435.122C-0.622775 435.024 -0.778019 434.318 -0.778019 434.318L-0.227612 433.119L-0.015915 435.165V436.096C-0.015915 436.096 0.266344 437.055 0.29457 437.239C0.322796 437.422 1.38127 437.239 1.38127 437.239V435.913L1.74821 434.925L1.95991 436.336V437.38L2.39741 438.622L2.94781 437.973V436.463L3.38532 438.622V439.765L3.6958 440.724L4.18976 439.609L4.62727 438.128V439.454L5.02243 440.414V441.035L5.95389 440.724V439.581L6.20792 438.255L6.67365 439.666V440.809L7.16761 442.784L7.76035 442.192L7.94382 441.712L7.63333 441.035L8.29664 439.694L8.66358 441.303C8.66358 441.303 8.43777 441.895 8.43777 441.938C8.43777 441.98 8.73415 442.841 8.73415 442.841L9.22811 443.885L9.10108 444.181L9.41157 443.73V443.081L9.58093 442.559L9.79263 443.165V443.687L10.0043 444.449H11.0063L11.5285 443.716L12.1072 442.178L12.6293 444.026L12.2342 445.084L12.841 446.961L13.462 446.326C13.5755 445.864 13.6324 445.39 13.6314 444.915L14.5064 441.867V446.721L14.8592 447.963L15.5931 447.173L15.8894 446.114L16.3269 443.941L16.7362 446.298L16.4116 447.709L16.7362 449.586H18.1475V448.555L18.2887 446.679C18.4499 446.198 18.6384 445.727 18.8532 445.268V450.743C18.8532 450.743 19.7 451.829 19.7 451.716C19.7 451.603 20.2645 450.305 20.2645 450.305L20.7866 448.513L21.1395 450.926V452.633L21.5629 453.776C21.5629 453.776 22.3109 452.605 22.3391 452.521C22.3673 452.436 22.0427 451.49 22.1274 451.349C22.2121 451.208 22.8895 449.092 22.8895 449.092L23.4822 451.702L22.8895 452.845L23.4117 454.524L24.2585 455.724C24.7038 455.323 25.1278 454.899 25.5286 454.454C25.4079 453.993 25.351 453.519 25.3593 453.043C25.4439 452.718 25.825 450.841 25.825 450.841L26.206 453.96C26.0652 454.201 25.983 454.471 25.9661 454.75C25.9661 455.075 26.206 457.135 26.206 457.135C26.206 457.135 27.2081 456.57 27.2081 456.401C27.2081 456.232 27.2927 454.609 27.2927 454.496C27.2927 454.383 27.6738 453.085 27.6738 453.085L28.0548 454.792V455.935L28.4641 457.346V458.757L29.2262 460.465L30.2565 459.054V456.641L31.6678 453.085C31.7525 452.873 31.9924 456.232 32.0206 456.316C32.0488 456.401 31.4984 457.995 31.4984 458.08C31.4984 458.165 31.9924 460.14 31.9924 460.14L31.9077 461.283L32.9662 462.285L34.3775 460.874L34.067 458.63L34.7303 454.877L35.436 459.336L35.0831 461.41C35.2803 462.369 35.4123 463.34 35.4783 464.317C35.4094 465.405 35.4519 466.497 35.6053 467.576L36.7485 470.399L37.3694 468.719L37.1436 466.998L38.0186 463.95V462.017L38.6819 464.754V466.391L39.0771 469.439V470.413L40.0932 469.749L40.1779 467.464L41.1517 464.994V463.71L41.8574 468.296C41.813 468.926 41.813 469.557 41.8574 470.187C41.942 470.455 42.2525 471.908 42.2525 471.908L42.8312 471.034L43.3534 468.437L44.1013 466.857V468.889L43.8332 471.231L44.1013 472.868L45.2445 473.489L46.1195 472.205L45.8937 470.314L46.684 468.423L47.2627 472.388L47.9683 474.73L50.3534 475.916C50.3534 475.916 51.4966 473.094 51.4966 472.924C51.4966 472.755 51.7082 469.58 51.7082 469.58L52.6538 468.437V471.612L52.1316 473.023L52.6538 475.097L52.2163 476.24L53.1478 478.667L52.3574 479.373L53.4583 481.574L54.7425 479.232L54.4744 477.905C54.4744 477.905 55.4905 476.41 55.3494 476.184C55.202 475.785 55.0887 475.374 55.0107 474.956C55.0107 474.956 55.9986 469.961 56.055 470.187L56.9865 474.603C56.9376 474.833 56.8618 475.055 56.7607 475.267C56.6055 475.577 57.6357 477.426 57.6357 477.426L57.1982 478.357L57.6357 480.121C57.6357 480.121 58.92 477.567 58.8635 477.426C58.6481 476.745 58.4738 476.053 58.3414 475.351L59.174 472.614L59.9644 475.619L60.4865 476.889V478.964L61.8978 480.064L63.6196 476.72V473.898L63.9724 472.36C63.9724 472.36 64.4946 473.954 64.5511 474.166C64.5213 474.513 64.4453 474.855 64.3253 475.182L65.3837 479.81L66.4422 477.919C66.35 477.454 66.2933 476.982 66.2729 476.508C66.2729 476.24 67.0209 473.559 67.0209 473.559L67.9523 476.776L67.5148 477.609L68.3898 480.431L71.2124 481.518L72.4967 478.611V477.51L72.9342 475.873L73.8092 478.343C73.8092 478.343 73.414 478.738 73.4564 478.879C73.4987 479.02 74.1197 481.532 74.1197 481.532L75.7004 481.01V478.851C75.7004 478.851 76.279 477.27 76.3637 477.524L77.6479 481.532V482.463L79.5391 482.773C79.7803 481.886 79.9735 480.986 80.1177 480.078C80.1177 479.81 80.8234 478.752 80.8234 478.667C80.8234 478.583 80.2447 476.734 80.2447 476.734L80.8234 473.249L81.6137 476.692V482.519C81.6137 482.519 83.025 480.403 83.025 480.276C83.025 480.149 83.2932 477.99 83.2932 477.99L84.0411 481.08L85.2266 483.818L85.8476 481.786L85.5371 480.812C85.6736 480.172 85.8479 479.541 86.0593 478.921L87.1178 481.969L87.7388 484.438H89.3759L89.6722 483.423L89.4182 481.094L90.2509 479.02L90.8718 481.052V482.068L91.1823 483.042V484.805L92.763 486.216C92.6075 485.822 92.5032 485.41 92.4525 484.989C92.4525 484.721 93.0311 483.14 93.0311 482.999C93.0311 482.858 93.3416 480.544 93.3416 480.544L93.9626 483.253V484.975L94.6682 486.513L95.1057 485.412V483.521L96.3336 480.544L96.7287 484.001L96.6017 484.932L97.392 486.88L98.8033 488.601L99.9465 487.585L99.5513 486.964C99.5513 486.964 100.836 482.604 100.963 482.731C101.09 482.858 101.668 485.779 101.711 486.089C101.652 486.787 101.548 487.48 101.4 488.164L101.979 489.349L104.801 490.845V488.728L105.775 484.41L107.186 487.134L106.481 490.04C106.481 490.04 108.245 494.542 108.245 494.273C108.245 494.005 109.924 487.924 109.924 487.924V484.58L110.983 481.489L112.126 486.16L111.251 487.402L112.14 491.113V493.145L113.467 496.051L112.846 497.547L114.342 502.048L115.485 499.015C115.485 499.015 114.963 497.11 114.963 496.842C114.963 496.574 116.289 494.372 116.021 494.104C115.753 493.836 115.231 493.229 115.499 492.877C115.767 492.524 117.447 485.737 117.447 485.737L118.773 491.212L117.941 492.623L118.773 495.445L119.775 497.293L120.876 493.794L121.426 490.972L122.4 493.878V496.432H123.896L125.039 494.358L124.729 493.032C124.729 492.862 125.308 491 125.392 491.621C125.477 492.242 126.013 494.669 126.013 494.669L125.745 495.459L126.013 497.533L127.425 499.918C127.613 499.404 127.759 498.875 127.862 498.337C127.862 498.168 127.425 497.321 127.425 497.321C127.425 497.321 128.045 493.399 128.088 493.667L128.624 496.884L128.455 497.9C128.455 497.9 129.076 499.311 129.118 499.494C129.623 499.789 130.151 500.039 130.699 500.242L131.32 497.773L131.63 495.529L132.025 496.813V498.351L132.505 500.341L133.126 501.879L133.437 501.301L133.211 500.158L134.312 496.813L136.344 502.458L135.723 502.937L136.344 504.264L137.318 503.121C137.258 502.645 137.168 502.174 137.05 501.71C136.979 501.71 137.318 498.337 137.318 498.337L138.108 501.907L137.84 503.234L138.376 504.87L139.618 505.223L139.519 504.123L139.999 501.569L140.55 503.643V505.759L142.469 507.354L142.243 506.169L141.89 505.026L142.469 500.313L143.711 506.747V508.074L144.812 505.562L145.165 503.135L146.138 508.074L146.971 506.493L147.409 503.798L147.677 506.62L148.566 510.021L150.288 508.793C150.323 507.626 150.427 506.463 150.598 505.308C150.725 505.308 151.431 509.146 151.431 509.146L152.659 524.512H-37.0061L-30.119 419.855Z" fill="#0E4764"/>
<path d="M291.714 425.414L288.722 424.836V421.534L287 418.486L285.419 421.929V424.751L284.008 427.404L282.089 425.711L280.522 421.322L279.421 424.892L278.871 429.125H275.159L273.875 427.333V426.459L272.675 423.552L272.125 426.995L272.958 427.785L272.125 429.041L270.559 428.251V427.065L269.909 425.076L269.175 427.517V428.505L268.075 429.76L266.875 431.087V432.314L265.732 432.018V430.762L264.815 430.17L265.153 429.224L264.49 427.982L263.615 429.506L264.123 429.944L263.728 431.186L263.827 431.806L263.234 432.709L262.754 431.99L262.867 431.496L262.317 430.593L262.062 431.736L262.317 432.145L261.95 433.09L261.286 432.582L260.877 431.171L260.665 432.484L260.016 433.514L259.734 434.233L259.183 433.415L258.52 432.3L258.238 434.219V435.122L257.899 435.602L256.671 436.816L256.445 437.479L255.669 437.112L255.443 435.828L254.71 434.84L254.484 436.463V437.747C254.484 437.747 253.835 438.537 253.792 438.636C253.75 438.735 253.651 439.694 253.651 439.694L252.875 438.932V438.269L252.649 437.211L252.325 438.269L251.958 439.003L252.183 440.089L251.167 441.5L250.702 440.668L250.927 439.68L250.419 437.86L249.77 439.68V440.343L249.361 441.754L249.079 443.038C248.749 442.662 248.443 442.266 248.161 441.853C248.161 441.754 248.387 440.992 248.387 440.992L247.554 439.708L247.23 441.895V442.883C247.23 442.883 246.82 443.913 246.764 444.111C246.708 444.308 245.155 444.111 245.155 444.111V442.7L244.605 441.641L244.28 443.052V444.167L243.631 445.508L242.798 444.816V443.194L242.149 445.508V446.735L241.683 447.765L240.949 446.58L240.3 444.986V446.397L239.707 447.427V448.09L238.296 447.765V446.538L237.929 445.127L237.238 446.651V447.878L236.504 449.995L235.629 449.36L235.347 448.852L235.812 448.132L234.824 446.721L234.274 448.443C234.274 448.443 234.613 449.078 234.613 449.134C234.613 449.191 234.161 450.094 234.161 450.094L233.413 451.208L233.597 451.519L233.131 451.039V450.348L232.891 449.783L232.58 450.432L232.679 450.997L232.369 451.815H230.887L230.097 451.039L229.25 449.388L228.459 451.364L229.052 452.492L228.149 454.496L227.232 453.819C227.034 453.678 226.963 452.309 226.963 452.309L225.651 449.049V454.242L225.129 455.568L224.042 454.722L223.59 453.593L222.913 451.152L222.306 453.664C222.306 453.664 222.786 455.075 222.786 455.23C222.786 455.385 222.306 457.248 222.306 457.248H220.217V456.147L220.006 454.129C219.76 453.641 219.481 453.17 219.173 452.718V458.56C219.173 458.56 217.903 459.717 217.903 459.604C217.65 459.119 217.372 458.648 217.07 458.193L216.28 456.274L215.758 458.856V460.676L215.123 461.89C215.123 461.89 214.008 460.634 213.965 460.479C213.923 460.324 214.403 459.378 214.276 459.223C214.149 459.068 213.147 456.796 213.147 456.796L212.272 459.618L213.147 460.846L212.356 462.638L211.086 463.922C211.086 463.922 209.209 462.666 209.209 462.511C209.209 462.356 209.604 461.41 209.477 461.1C209.35 460.789 208.786 458.743 208.786 458.743L208.221 462.073C208.422 462.314 208.545 462.609 208.574 462.92C208.574 463.273 208.221 465.46 208.221 465.46C208.221 465.46 206.739 464.867 206.739 464.67C206.739 464.472 206.612 462.751 206.612 462.624C206.612 462.497 206.048 461.057 206.048 461.057L205.483 462.878V464.105L204.877 465.672L204.961 467.238L203.832 469.058L202.308 467.52V464.98L200.177 461.17C199.937 462.312 199.763 463.466 199.655 464.627C199.655 464.726 200.445 466.419 200.445 466.518C200.445 466.617 199.697 468.719 199.697 468.719L199.824 469.947L198.258 471.019L196.098 469.51L196.55 467.111L195.562 463.103L194.518 467.859L195.04 470.074C194.746 471.093 194.548 472.137 194.447 473.192C194.546 474.358 194.48 475.531 194.249 476.678L192.542 479.655L191.624 477.863L191.949 476.029L190.637 472.769V470.695L189.649 473.616V475.365L189.183 478.667V479.711L187.673 479.006L187.546 476.551L186.135 473.912V472.501L185.09 477.411C185.157 478.087 185.157 478.768 185.09 479.443C184.963 479.726 184.497 481.278 184.497 481.278L183.651 480.332L182.86 477.51L181.745 475.817V477.99L182.141 480.488L181.745 482.237L180.038 482.9L178.725 481.489L179.05 479.457L177.878 477.426L177.032 481.659L175.987 484.156L172.459 485.426C172.459 485.426 170.751 482.364 170.751 482.223C170.751 482.082 170.441 478.639 170.441 478.639L169.03 477.411V480.812L169.82 482.364L169.03 484.58L169.679 485.807L167.872 488.277C167.872 488.277 164.711 486.047 164.909 485.807C165.121 485.389 165.287 484.949 165.403 484.495C165.403 484.495 163.991 479.161 163.864 479.387L162.453 484.1C162.525 484.35 162.635 484.588 162.777 484.805C163.003 485.13 161.465 487.119 161.465 487.119L162.114 488.107L161.465 489.998C160.8 489.093 160.188 488.151 159.63 487.176C159.951 486.459 160.216 485.719 160.421 484.961L159.179 482.04L158.007 485.243L157.231 486.654V488.869L155.185 490.054L152.63 486.47V483.493L152.108 481.842C152.108 481.842 151.318 483.535 151.261 483.775C151.305 484.154 151.414 484.522 151.586 484.862L150.019 489.815L148.453 487.783C148.598 487.276 148.687 486.756 148.721 486.231C148.721 485.948 147.606 483.07 147.606 483.07L146.195 486.513L146.844 487.402L145.531 490.492L141.41 491.649L139.646 488.46V487.275L138.997 485.525L137.685 488.164C137.685 488.164 138.277 488.587 138.207 488.728C138.136 488.869 137.219 491.55 137.219 491.55L134.862 490.986V488.672C134.862 488.672 134.015 486.978 133.874 487.261L131.983 491.494V492.481L129.16 492.806C128.812 491.886 128.529 490.943 128.314 489.984C128.314 489.702 127.269 488.573 127.269 488.432C127.269 488.291 128.116 486.358 128.116 486.358L127.269 482.632L126.098 486.315V492.538C126.098 492.538 123.939 490.28 123.939 490.139C123.939 489.998 123.543 487.684 123.543 487.684L122.428 490.986L120.664 493.907L119.747 491.734L120.199 490.689C119.988 489.993 119.724 489.313 119.408 488.658L117.842 491.917L116.924 494.556H114.497L114.059 493.469L114.44 490.972L113.199 488.756L112.281 490.929V492.016L111.83 493.06V494.951L109.473 496.461C109.696 496.047 109.849 495.598 109.924 495.134C109.924 494.852 109.078 493.159 109.078 493.018C109.078 492.877 108.626 490.393 108.626 490.393L107.709 493.3V495.134L106.664 496.785L106.015 495.6V493.568L104.18 490.379L103.588 494.076L103.785 495.064L102.614 497.138L100.581 498.972L98.8738 497.886L99.4666 497.223C98.8875 495.702 98.2183 494.218 97.4625 492.778C97.3355 492.961 96.4182 496.037 96.3476 496.362C96.4332 497.112 96.5843 497.853 96.7992 498.577L95.9524 499.847L91.7185 501.456V499.198L90.3072 494.584L88.0774 497.406L89.1217 500.524C89.1217 500.524 86.5108 505.336 86.5108 505.054C86.5108 504.772 84.0269 498.267 84.0269 498.267V494.683L82.418 491.367L80.7104 496.362L82.0229 497.688L80.7104 501.653V503.826L78.7487 506.888L79.666 508.497L77.4362 513.309L75.7285 510.063C76.035 509.307 76.2988 508.535 76.5188 507.749C76.5188 507.467 74.5571 505.11 74.9523 504.828C75.3474 504.546 76.1237 503.883 75.7426 503.502C75.3616 503.121 72.92 495.868 72.92 495.868L70.9583 501.71L72.2002 503.121L70.9583 506.197L69.547 508.172L67.924 504.419L67.1054 501.371L65.6941 504.489V507.227H63.4643L61.7566 505.012L62.2082 503.601C62.2082 503.417 61.3615 501.428 61.2203 502.048C61.0792 502.669 60.303 505.308 60.303 505.308L60.6981 506.155L60.303 508.37L58.2143 510.91C57.9384 510.37 57.7208 509.802 57.565 509.216C57.565 509.033 58.2143 508.13 58.2143 508.13C58.2143 508.13 57.2969 503.897 57.2263 504.221L56.3796 507.693L56.6477 508.779C56.6477 508.779 55.7304 510.331 55.6598 510.472C54.8933 510.794 54.1059 511.062 53.3029 511.277L52.3856 508.638L51.934 506.239L51.3412 507.65V509.301L50.6215 511.418L49.7041 513.069L49.2525 512.462L49.5771 511.234L47.9118 507.594L44.9057 513.675L45.823 514.197L44.9057 515.609L43.4944 514.381C43.5795 513.844 43.7118 513.315 43.8896 512.801C44.0025 512.801 43.4944 509.188 43.4944 509.188L42.2666 513.026L42.6617 514.437L41.8714 516.187L40.0226 516.568L40.1778 515.383L39.444 512.645L38.6254 514.861V517.118L35.8028 518.812L36.1274 517.542L36.6496 516.314L35.8028 511.263L33.9399 518.177V519.588L32.3028 516.907L31.7806 514.31L30.3693 519.588L29.1273 517.894L28.4782 515.072L28.083 518.134L26.7423 521.704L24.1878 520.378C24.137 519.126 23.986 517.88 23.7362 516.653C23.2393 517.995 22.8245 519.366 22.4942 520.759L20.6595 524.385H301.946L291.714 425.414Z" fill="#083753"/>
<path d="M273.353 284.973C241.961 286.445 210.823 291.333 180.489 299.549L175.197 313.419C168.706 316.186 162.382 319.328 156.257 322.831C149.441 327.064 149.666 328.235 149.666 328.235V335.051C144.116 336.96 139.113 340.19 135.088 344.462C128.497 351.518 129.908 351.278 129.908 351.278L140.253 373.855L176.044 380.67C176.81 382.921 177.945 385.028 179.403 386.907C181.52 389.376 184.695 392.551 184.695 392.551L197.75 394.668L211.51 423.241L204.905 457.346L191.497 484.156L187.024 524.371H273.339L273.353 284.973Z" fill="#0E4764"/>
<path d="M129.922 351.292L140.267 373.869L176.058 380.684L184.568 374.109V367.519L195.633 363.766L198.215 359.293L215.617 353.183V349.415L162.933 352.943L157.993 350.586L129.922 351.292Z" fill="#185770"/>
<path d="M149.681 335.065L170.808 333.428L174.463 328.842L189.282 326.246L190.213 323.903L149.681 328.249V335.065Z" fill="#185770"/>
<path d="M175.197 313.434L185.274 310.851L187.984 307.168L194.8 305.433L196.098 302.258L180.49 299.563L175.197 313.434Z" fill="#185770"/>
<path d="M197.764 394.682L211.863 396.22L214.53 401.624H218.369L219.385 408.919L211.524 423.255L197.764 394.682Z" fill="#185770"/>
<path d="M191.512 484.17L199.02 482.294L205.949 474.053L214.53 470.765L224.564 457.121H212.794L206.599 448.64L204.919 457.36L191.512 484.17Z" fill="#185770"/>
<path d="M200.219 295.683H145.997V299.563H200.219V295.683Z" fill="#0E4764"/>
<path d="M201.574 269.874L160.576 263.835V295.683H201.574V269.874Z" fill="#0E4764"/>
<path d="M153.206 261.331L152.795 264.123L208.953 272.384L209.364 269.592L153.206 261.331Z" fill="#0E4764"/>
<path d="M154.409 297.616H151.586V326.726H154.409V297.616Z" fill="#0E4764"/>
<path d="M165.128 296.795L151.84 315.897L154.157 317.509L167.445 298.407L165.128 296.795Z" fill="#0E4764"/>
<path d="M179.276 275.335H169.637V284.973H179.276V275.335Z" fill="#276B7E"/>
<path d="M242.403 289.911C242.163 288.867 243.194 287.992 243.575 286.99C244.125 285.579 243.349 283.985 243.081 282.461C242.779 280.111 243.407 277.737 244.831 275.843C246.249 273.976 247.905 272.301 249.756 270.862C248.134 271.728 246.421 272.409 244.647 272.894C243.999 270.89 243.999 268.732 244.647 266.728C245.056 265.797 245.734 265.02 246.2 264.132C247.921 260.844 246.778 256.117 249.671 253.789L245.268 255.566C246.209 251.164 247.31 246.79 248.571 242.444L246.284 243.107C246.637 236.052 249.375 236.898 250.885 224.763C253.821 235.261 256.333 237.999 257.786 242.768C256.576 242.531 255.4 242.143 254.286 241.611C254.2 245.837 255.14 250.02 257.024 253.803C258.125 255.99 259.565 258.219 259.381 260.66L256.559 260.731L259.381 266.954C260.553 269.493 261.71 272.598 260.228 274.954C260.021 275.208 259.893 275.517 259.861 275.843C259.861 276.323 260.369 276.633 260.764 276.901C263.911 278.99 264.659 283.209 265.139 286.962L242.403 289.911Z" fill="#0E4764"/>
<path d="M254.371 288.402C254.044 286.928 254.044 285.402 254.371 283.929C255.156 280.175 256.358 276.521 257.956 273.035C258.831 270.956 259.725 268.882 260.637 266.813C261.106 265.942 261.376 264.978 261.428 263.99C259.519 265.093 257.351 265.667 255.147 265.655C255.246 262.72 258.577 260.787 259.028 257.881C259.198 256.836 261.329 249.414 263.502 247.749C261.759 248.471 259.909 248.9 258.026 249.019C260.601 243.686 262.28 237.965 262.994 232.087C262.15 232.638 261.178 232.964 260.172 233.032C259.367 230.619 261.301 228.277 262.401 225.977C264.561 221.461 263.516 212.12 265.831 207.633C267.962 211.556 268.512 217.595 269.274 222.012C269.777 223.641 270.399 225.23 271.137 226.767C271.942 228.686 273.734 230.266 273.805 232.411C272.481 231.347 270.817 230.796 269.119 230.859C269.834 231.512 270.435 232.28 270.897 233.131C271.386 234.097 271.765 235.114 272.026 236.165C273.17 240.285 273.762 244.631 276.26 248.201C278.025 250.727 276.43 252.702 277.375 253.605C276.618 252.935 275.702 252.468 274.715 252.248C273.728 252.028 272.7 252.063 271.73 252.349C275.407 257.529 277.497 263.668 277.742 270.016C276.212 269.65 274.643 269.475 273.071 269.493C277.069 274.402 279.419 280.445 279.789 286.765C273.889 286.553 267.553 287.682 261.653 287.668C258.958 287.682 256.784 287.089 254.371 288.402Z" fill="#0E4764"/>
<path d="M240.794 295.104C240.999 294.174 240.999 293.211 240.794 292.282C240.298 289.895 239.536 287.571 238.522 285.354C237.967 284.027 237.398 282.71 236.815 281.403C236.515 280.841 236.346 280.219 236.321 279.582C237.534 280.283 238.913 280.648 240.315 280.641C240.315 278.778 238.127 277.551 237.845 275.702C237.746 275.039 236.433 270.354 235.022 269.254C236.132 269.711 237.31 269.983 238.508 270.058C236.866 266.654 235.798 263.002 235.347 259.249C235.886 259.604 236.509 259.813 237.153 259.856C237.675 258.318 236.433 256.822 235.742 255.369C234.331 252.547 235.036 246.55 233.554 243.728C232.143 246.225 231.847 250.063 231.367 252.871C231.048 253.911 230.651 254.925 230.181 255.905C229.673 257.133 228.53 258.135 228.488 259.461C229.33 258.786 230.387 258.436 231.466 258.473C231.015 258.879 230.633 259.355 230.337 259.884C230.025 260.5 229.784 261.148 229.617 261.817C228.897 264.442 228.516 267.25 226.949 269.465C225.82 271.074 226.837 272.287 226.244 272.908C226.724 272.482 227.305 272.184 227.932 272.044C228.559 271.903 229.212 271.924 229.829 272.104C227.48 275.413 226.151 279.337 226.004 283.392C226.979 283.162 227.98 283.053 228.982 283.068C226.408 286.196 224.891 290.059 224.649 294.102C228.403 293.961 232.425 294.681 236.194 294.681C237.873 294.652 239.298 294.271 240.794 295.104Z" fill="#0E4764"/>
<path d="M247.399 296.289C247.56 295.569 247.56 294.822 247.399 294.102C247.016 292.269 246.429 290.485 245.649 288.782C245.226 287.767 244.788 286.755 244.337 285.749C244.105 285.313 243.975 284.831 243.956 284.338C244.886 284.878 245.943 285.16 247.018 285.156C247.018 283.745 245.353 282.786 245.127 281.36C245.042 280.852 243.998 277.254 242.94 276.422C243.789 276.774 244.69 276.983 245.607 277.043C244.345 274.43 243.525 271.626 243.18 268.746C243.6 269.024 244.087 269.185 244.591 269.211C244.986 268.04 244.04 266.897 243.504 265.768C242.446 263.567 242.968 259.009 241.825 256.85C240.92 259.106 240.354 261.484 240.145 263.906C239.902 264.703 239.6 265.481 239.242 266.234C238.847 267.165 237.972 267.941 237.944 268.957C238.59 268.437 239.401 268.167 240.23 268.195C239.883 268.516 239.592 268.893 239.369 269.31C239.135 269.759 238.951 270.232 238.819 270.721C238.474 272.779 237.782 274.764 236.772 276.591C235.911 277.819 236.688 278.792 236.236 279.23C236.606 278.904 237.052 278.677 237.533 278.571C238.015 278.465 238.515 278.483 238.988 278.623C237.193 281.151 236.173 284.147 236.052 287.244C236.797 287.067 237.56 286.982 238.325 286.99C236.352 289.391 235.191 292.355 235.008 295.457C237.831 295.344 240.978 295.894 243.857 295.894C245.052 295.7 246.277 295.836 247.399 296.289V296.289Z" fill="#0E4764"/>
<path d="M4.34501 527.264C4.5567 526.304 3.62525 525.514 3.27242 524.597C2.76435 523.285 3.48412 521.859 3.72404 520.463C4.0011 518.319 3.42877 516.151 2.12927 514.423C0.837011 512.72 -0.671666 511.193 -2.35867 509.88C-0.880241 510.672 0.681826 511.296 2.29862 511.742C2.89394 509.908 2.89394 507.932 2.29862 506.098C1.93169 505.251 1.31071 504.546 0.887323 503.728C-0.67922 500.722 0.365142 496.418 -2.27399 494.288L1.7341 495.91C0.793237 491.894 -0.213493 487.905 -1.28608 483.945L0.802646 484.551C0.478047 478.075 -2.01995 478.907 -3.43126 467.774C-6.11273 477.355 -8.41315 479.839 -9.72566 484.199C-8.62221 483.981 -7.55058 483.626 -6.53612 483.14C-6.45832 486.994 -7.31543 490.809 -9.03412 494.259C-10.0361 496.263 -11.3486 498.281 -11.1934 500.51H-8.66718L-11.2781 506.155C-12.3507 508.469 -13.395 511.277 -12.0543 513.45C-11.8621 513.682 -11.7441 513.968 -11.7156 514.268C-11.7156 514.705 -12.1813 514.988 -12.5483 515.228C-15.3709 517.132 -16.1047 520.985 -16.5422 524.399L4.34501 527.264Z" fill="#02284C"/>
<path d="M282.879 526.53C281.627 517.03 279.161 507.731 275.541 498.859L280.819 500.934C278.25 495.12 275.461 489.41 272.45 483.803L275.851 485.031C275.639 481.941 273.565 479.288 272.817 476.268C272.295 474.138 272.436 471.894 272.012 469.749C271.589 467.605 270.319 465.375 268.202 464.825C268.527 464.405 268.999 464.125 269.524 464.041C270.048 463.957 270.585 464.076 271.024 464.373C272.534 461.071 269.387 457.629 268.442 454.115C267.581 450.87 268.597 447.06 266.748 444.238C264.631 446.566 265.817 449.783 265.012 452.831C264.597 454.085 264.058 455.295 263.403 456.443C262.009 459.283 261.193 462.372 261.004 465.53L263.149 465.065C261.738 467.167 261.653 469.848 261.23 472.346C260.582 476.098 259.08 479.651 256.841 482.731C258.511 483.223 260.266 483.357 261.992 483.126C259.311 485.031 259.169 488.77 258.788 492.115C258.747 493.332 258.429 494.524 257.857 495.6C256.333 498.083 252.423 499 252.099 501.893C254.485 502.519 256.986 502.567 259.395 502.034C257.84 506.849 255.682 511.447 252.974 515.721C251.312 518.446 249.295 520.937 246.976 523.129L253.313 523.397C252.992 525.278 253.385 527.21 254.413 528.816L282.879 526.53Z" fill="#02284C"/>
<path d="M184.173 545.96C183.496 540.83 182.163 535.808 180.207 531.017L183.03 532.132C181.647 528.99 180.137 525.904 178.5 522.875L180.334 523.539C180.221 521.859 179.092 520.434 178.697 518.812C178.415 517.669 178.485 516.455 178.26 515.284C178.193 514.693 177.966 514.133 177.603 513.662C177.239 513.192 176.754 512.83 176.199 512.617C176.375 512.395 176.628 512.247 176.907 512.203C177.187 512.158 177.473 512.221 177.709 512.377C178.528 510.585 176.82 508.737 176.298 506.832C175.776 504.927 175.988 503.459 175.381 501.526C174.858 503.403 174.59 507.058 174.153 508.694C173.969 509.386 172.375 511.333 172.276 513.026L173.433 512.772C172.815 513.998 172.459 515.339 172.389 516.709C172.043 518.748 171.232 520.679 170.018 522.353C170.933 522.624 171.895 522.696 172.84 522.565C171.429 523.595 171.274 525.655 171.104 527.419C171.084 528.074 170.915 528.716 170.61 529.296C169.792 530.707 167.675 531.13 167.506 532.696C168.794 533.029 170.143 533.053 171.443 532.767C170.602 535.368 169.435 537.852 167.971 540.161C167.072 541.635 165.981 542.983 164.725 544.168L168.141 544.309C167.965 545.327 168.176 546.374 168.733 547.244L184.173 545.96Z" fill="#02284C"/>
<path d="M237.308 528.054C237.527 526.599 238.078 525.213 238.917 524.004C239.707 523.128 240.32 522.107 240.724 520.999C240.833 519.738 240.655 518.469 240.202 517.288C239.983 516.693 239.925 516.051 240.034 515.426C240.143 514.802 240.415 514.217 240.823 513.732C239.681 514.336 238.346 514.463 237.111 514.085C237.28 513.026 238.268 512.307 238.903 511.446C240.314 509.527 240.075 506.874 240.498 504.518C241.114 502.01 242.149 499.625 243.56 497.462C242.273 498.228 240.821 498.673 239.327 498.761C241.061 495.756 242.332 492.507 243.095 489.123C242.301 489.581 241.361 489.717 240.47 489.504C242.925 486.682 243.179 482.886 243.504 479.119C243.927 474.208 244.915 470.653 245.438 465.897C245.607 469.086 246.524 474.025 246.75 476.819C246.976 479.613 249.474 483.352 250.01 484.763C249.782 484.452 249.485 484.198 249.142 484.022C248.799 483.846 248.42 483.751 248.034 483.747C249.029 487.669 250.23 491.536 251.633 495.332L249.643 495.501C251.501 498.258 252.601 501.455 252.833 504.772L250.998 504.927C251.605 506.338 250.758 508.059 251.393 509.456C251.681 509.961 252.022 510.434 252.409 510.867C254.413 513.563 253.821 518.021 256.643 519.729C255.42 519.764 254.201 519.578 253.044 519.178C252.536 519.432 252.706 520.209 253.044 520.702C254.357 522.904 256.474 524.696 257.095 527.193C257.142 527.302 257.166 527.42 257.166 527.539C257.166 527.658 257.142 527.775 257.095 527.885C256.968 528.082 256.587 528.096 256.516 527.885L257.335 529.296L237.308 528.054Z" fill="#02284C"/>
<path d="M192.231 537.042C192.375 536.029 192.752 535.063 193.332 534.22C193.875 533.62 194.296 532.92 194.574 532.16C194.652 531.293 194.531 530.42 194.221 529.606C194.071 529.198 194.03 528.757 194.105 528.329C194.179 527.9 194.365 527.499 194.645 527.165C193.859 527.58 192.94 527.666 192.09 527.405C192.217 526.671 192.881 526.191 193.318 525.599C194.306 524.272 194.123 522.452 194.419 520.829C194.836 519.09 195.548 517.434 196.522 515.933C195.635 516.464 194.633 516.774 193.6 516.836C194.795 514.774 195.67 512.543 196.197 510.218C195.651 510.535 195.005 510.631 194.391 510.486C196.084 508.511 196.254 505.943 196.479 503.347C196.762 499.974 197.425 497.491 197.806 494.259C197.919 496.447 198.554 499.904 198.709 501.766C198.865 503.629 200.572 506.253 200.953 507.227C200.792 507.005 200.58 506.824 200.334 506.701C200.088 506.579 199.817 506.517 199.542 506.521C200.224 509.216 201.049 511.872 202.012 514.48L200.6 514.593C201.912 516.489 202.696 518.7 202.873 520.999L201.617 521.098C202.026 522.071 201.447 523.256 201.885 524.216C202.08 524.564 202.312 524.89 202.576 525.19C203.988 527.038 203.536 530.1 205.512 531.285C204.672 531.308 203.836 531.179 203.042 530.904C202.689 531.074 202.816 531.61 203.042 531.949C203.945 533.458 205.399 534.7 205.865 536.407C205.897 536.483 205.914 536.565 205.914 536.647C205.914 536.73 205.897 536.811 205.865 536.887C205.78 537.028 205.512 537.042 205.469 536.887L206.034 537.861L192.231 537.042Z" fill="#02284C"/>
<path d="M225.736 467.379C225.765 468.506 225.593 469.629 225.228 470.695C224.931 471.4 224.48 472.021 224.141 472.699C223.134 474.562 222.551 476.624 222.433 478.738C223.353 478.728 224.251 478.465 225.03 477.976C223.492 490.379 220.514 488.686 219.173 493.497C221.84 492.806 222.532 491.48 224.621 490.774C223.519 492.25 222.894 494.027 222.828 495.868C222.885 496.909 222.843 497.953 222.701 498.986C222.405 500.285 221.53 501.371 221.107 502.627C220.584 504.179 220.726 506.028 219.695 507.269C218.806 508.285 217.084 509.033 217.395 510.345C218.98 510.441 220.559 510.089 221.953 509.329C218.425 515.722 214.798 522.452 214.643 529.761L241.204 528.35C240.78 525.232 238.381 522.706 237.195 519.884C235.657 516.258 235.897 511.926 233.695 508.596C234.964 509.49 236.492 509.941 238.042 509.88C236.419 508.675 235.275 506.936 234.81 504.969C233.218 500.394 231.991 495.699 231.141 490.929C231.814 491.605 232.63 492.12 233.529 492.437C234.428 492.755 235.387 492.866 236.335 492.764C233.75 490.431 231.778 487.499 230.591 484.227L229.772 476.847C230.924 477.62 232.321 477.942 233.695 477.75C231.593 476.621 230.873 473.983 230.449 471.64C229.222 465.446 228.474 459.251 227.246 453.071C226.837 455.752 226.667 458.588 226.371 460.648C226.014 462.876 225.802 465.124 225.736 467.379V467.379Z" fill="#02284C"/>
<path d="M186.219 505.012C186.242 505.723 186.066 506.426 185.711 507.043C185.415 507.481 184.963 507.862 184.625 508.271C183.674 509.294 183.076 510.595 182.917 511.982C183.803 511.984 184.683 511.826 185.514 511.517C183.975 519.15 180.997 518.106 179.657 521.069C182.324 520.646 183.002 519.828 185.104 519.39C184.604 519.759 184.187 520.228 183.878 520.768C183.57 521.307 183.377 521.905 183.312 522.523C183.369 523.165 183.326 523.812 183.185 524.442C182.889 525.232 182.014 525.853 181.59 526.685C181.167 527.518 181.209 528.788 180.179 529.507C179.149 530.227 177.568 530.594 177.878 531.398C179.423 531.463 180.966 531.252 182.437 530.777C178.909 534.714 175.282 538.849 175.126 543.35L201.687 542.517C201.264 540.598 198.865 539.088 197.679 537.296C196.141 535.067 196.381 532.4 194.179 530.382C195.555 530.953 197.037 531.222 198.526 531.172C197.1 530.619 195.942 529.538 195.294 528.153C193.74 525.426 192.508 522.528 191.625 519.517C193.203 520.407 195.013 520.801 196.818 520.646C194.459 519.448 192.473 517.628 191.074 515.383L190.256 510.839C191.503 511.324 192.846 511.513 194.179 511.39C193.359 511.095 192.629 510.593 192.06 509.933C191.491 509.273 191.103 508.477 190.933 507.622C189.705 503.812 188.957 500.002 187.729 496.193C187.32 497.843 187.151 499.593 186.854 500.849C186.498 502.211 186.285 503.606 186.219 505.012V505.012Z" fill="#02284C"/>
<path d="M42.5489 505.548C42.5667 506.214 42.4664 506.878 42.2526 507.509C42.0832 507.933 41.815 508.299 41.6034 508.694C41.0049 509.8 40.6579 511.024 40.5872 512.279C41.1319 512.273 41.6643 512.117 42.1255 511.827C41.2082 519.193 39.4441 518.177 38.6537 521.041C40.2344 520.632 40.6437 519.842 41.8856 519.433C41.2525 520.3 40.8937 521.337 40.8554 522.41C40.8906 523.027 40.8669 523.646 40.7848 524.258C40.6154 525.02 40.0933 525.669 39.8392 526.417C39.5852 527.165 39.6134 528.435 38.9642 529.239C38.315 530.044 37.4118 530.284 37.5529 531.074C38.4952 531.129 39.4341 530.919 40.2626 530.467C38.1739 534.263 36.0287 538.256 35.9299 542.588L51.68 541.784C51.426 539.935 50.0288 538.468 49.2949 536.76C48.3917 534.601 48.5328 532.047 47.2203 530.1C47.9753 530.628 48.8821 530.896 49.803 530.862C48.8428 530.134 48.1725 529.089 47.9119 527.913C46.9687 525.2 46.2419 522.416 45.7385 519.588C46.1371 519.988 46.6205 520.293 47.1531 520.481C47.6856 520.669 48.2536 520.735 48.8151 520.674C47.2865 519.287 46.119 517.548 45.4139 515.609L44.934 511.234C45.6188 511.691 46.447 511.882 47.2627 511.771C46.6975 511.342 46.232 510.795 45.8983 510.169C45.5645 509.543 45.3703 508.852 45.3292 508.144C44.5953 504.475 44.1578 500.793 43.4239 497.124C43.184 498.718 43.0852 500.398 42.9017 501.611C42.7006 502.914 42.5828 504.229 42.5489 505.548V505.548Z" fill="#02284C"/>
<path d="M-2.49976 546.539C-1.25214 537.04 1.20952 527.74 4.8249 518.868L-0.453372 520.999C2.1152 515.185 4.90487 509.475 7.91564 503.869L4.51441 505.096C4.7261 502.006 6.80072 499.353 7.54871 496.334C8.07089 494.203 7.92976 491.959 8.35315 489.815C8.77654 487.67 10.0467 485.44 12.1637 484.89C11.8387 484.47 11.366 484.19 10.8417 484.106C10.3174 484.022 9.7808 484.141 9.34105 484.438C7.83096 481.137 10.9782 477.694 11.9237 474.18C12.7846 470.935 11.7685 467.125 13.6173 464.303C15.7342 466.631 14.5488 469.848 15.3532 472.896C15.7685 474.15 16.3075 475.36 16.9621 476.508C18.3568 479.348 19.1724 482.437 19.3613 485.596L17.2161 485.13C18.6274 487.232 18.7121 489.913 19.1355 492.411C19.7838 496.163 21.2855 499.716 23.5246 502.796C21.8543 503.288 20.0992 503.422 18.3734 503.191C21.0549 505.096 21.196 508.835 21.577 512.18C21.6181 513.397 21.9367 514.589 22.5085 515.665C24.0327 518.148 27.942 519.066 28.2666 521.958C25.8802 522.584 23.379 522.633 20.9702 522.099C22.5257 526.914 24.6833 531.513 27.3916 535.787C29.0534 538.511 31.0704 541.002 33.3896 543.195L27.0529 543.463C27.3732 545.343 26.9807 547.275 25.9521 548.881L-2.49976 546.539Z" fill="#02284C"/>
<path d="M40.2485 543.251C40.0294 541.796 39.479 540.41 38.6396 539.201C37.85 538.325 37.2367 537.304 36.8331 536.196C36.7238 534.935 36.9024 533.666 37.3553 532.485C37.573 531.892 37.6303 531.252 37.5212 530.63C37.4122 530.008 37.1407 529.426 36.7344 528.943C37.8782 529.542 39.2127 529.664 40.4461 529.282C40.2767 528.223 39.2888 527.504 38.6537 526.643C37.2424 524.724 37.4823 522.071 37.059 519.715C36.4432 517.207 35.4078 514.822 33.9964 512.659C35.2835 513.425 36.7355 513.87 38.2303 513.958C36.4955 510.953 35.225 507.704 34.4622 504.32C35.2563 504.778 36.1956 504.914 37.0872 504.701C34.6315 501.879 34.3775 498.083 34.0529 494.316C33.6295 489.405 32.6416 485.85 32.1194 481.094C31.95 484.283 31.0327 489.222 30.8069 492.016C30.5811 494.81 28.1536 498.422 27.575 499.833C27.8029 499.522 28.1 499.268 28.443 499.092C28.7859 498.916 29.1652 498.821 29.5508 498.817C28.5564 502.739 27.3551 506.606 25.952 510.402L27.942 510.571C26.0839 513.328 24.9839 516.525 24.7524 519.842L26.5871 519.997C25.9802 521.408 26.827 523.129 26.1919 524.526C25.9038 525.031 25.5632 525.504 25.1758 525.937C23.1859 528.633 23.7645 533.091 20.9419 534.799C22.1649 534.834 23.3842 534.648 24.5407 534.249C25.0488 534.503 24.8794 535.279 24.5407 535.772C23.2282 537.974 21.1113 539.766 20.4903 542.263C20.4433 542.372 20.4191 542.49 20.4191 542.609C20.4191 542.728 20.4433 542.845 20.4903 542.955C20.6173 543.152 20.9984 543.166 21.0689 542.955L20.2504 544.366L40.2485 543.251Z" fill="#02284C"/>
<path d="M210.211 488.883C210.189 489.703 210.313 490.52 210.578 491.296C210.79 491.804 211.115 492.256 211.369 492.707C212.102 494.065 212.526 495.569 212.611 497.11C211.94 497.1 211.286 496.905 210.72 496.545C211.834 505.576 214.008 504.348 214.953 507.834C213.006 507.34 212.512 506.423 210.988 505.858C211.793 506.933 212.251 508.227 212.3 509.569C212.256 510.327 212.285 511.088 212.385 511.841C212.597 512.786 213.246 513.577 213.556 514.494C213.937 515.623 213.839 516.977 214.629 517.88C215.419 518.783 216.534 519.164 216.308 520.124C215.151 520.196 213.997 519.941 212.978 519.39C215.546 524.047 218.185 528.943 218.298 534.263L198.949 533.275C199.26 531.003 200.982 529.211 201.871 527.109C202.986 524.47 202.816 521.309 204.411 518.939C203.484 519.591 202.368 519.918 201.236 519.87C202.42 518.991 203.255 517.722 203.593 516.286C204.75 512.956 205.642 509.54 206.26 506.07C205.77 506.563 205.176 506.939 204.522 507.171C203.867 507.403 203.168 507.485 202.478 507.41C204.378 505.715 205.832 503.578 206.711 501.188L207.304 495.812C206.472 496.36 205.47 496.59 204.482 496.461C206.02 495.642 206.514 493.723 206.853 492.016C207.756 487.5 208.264 482.999 209.181 478.484C209.478 480.445 209.605 482.505 209.83 484.001C210.062 485.619 210.189 487.249 210.211 488.883Z" fill="#02284C"/>
</g>
<defs>
<linearGradient id="paint0_linear" x1="130.882" y1="0" x2="130.882" y2="524.165" gradientUnits="userSpaceOnUse">
<stop stop-color="#717374"/>
<stop offset="1" stop-color="#4D4D4F"/>
</linearGradient>
<linearGradient id="paint1_linear" x1="137.507" y1="531" x2="137.507" y2="-6" gradientUnits="userSpaceOnUse">
<stop offset="0.33" stop-color="#FBE57F"/>
<stop offset="0.4" stop-color="#FDCA8E"/>
<stop offset="0.48" stop-color="#FEAE9D"/>
<stop offset="0.52" stop-color="#FFA3A3"/>
<stop offset="0.55" stop-color="#F8A3A3"/>
<stop offset="0.59" stop-color="#E4A3A3"/>
<stop offset="0.64" stop-color="#C3A4A4"/>
<stop offset="0.734375" stop-color="#96A5A4"/>
<stop offset="0.838542" stop-color="#5DA6A5"/>
<stop offset="0.9999" stop-color="#51A6A5"/>
<stop offset="1" stop-color="#06385D"/>
</linearGradient>
</defs>
</svg>
