<svg width="41" height="48" viewBox="0 0 41 48" fill="none" xmlns="http://www.w3.org/2000/svg">
<path d="M24.4842 39.4109C20.6962 37.6418 17.5237 34.7804 15.3746 31.1943C13.2254 27.6083 12.1978 23.4615 12.4238 19.2868C12.6498 15.1122 14.119 11.1005 16.6427 7.76738C19.1663 4.43425 22.6291 1.93197 26.5859 0.582156C22.6518 0.16421 18.676 0.754052 15.0326 2.29618C11.3893 3.83831 8.19816 6.28201 5.75955 9.39736C3.32095 12.5127 1.71503 16.1973 1.09292 20.1043C0.470798 24.0114 0.852936 28.0125 2.20337 31.7312C3.55381 35.4499 5.82814 38.7638 8.81236 41.3612C11.7966 43.9587 15.3926 45.7542 19.262 46.5788C23.1314 47.4034 27.1469 47.23 30.9309 46.0749C34.7148 44.9198 38.1426 42.821 40.8918 39.976C38.2604 40.9944 35.4501 41.4693 32.6302 41.3722C29.8103 41.275 27.0393 40.6078 24.4842 39.4109Z" fill="#FAF4D4"/>
<path d="M7.77811 29.4944C9.40777 29.4944 10.7289 28.1732 10.7289 26.5436C10.7289 24.9139 9.40777 23.5928 7.77811 23.5928C6.14844 23.5928 4.82733 24.9139 4.82733 26.5436C4.82733 28.1732 6.14844 29.4944 7.77811 29.4944Z" fill="#F3EBC0"/>
<path d="M21.7256 46.7695C23.3552 46.7695 24.6764 45.4484 24.6764 43.8187C24.6764 42.189 23.3552 40.8679 21.7256 40.8679C20.0959 40.8679 18.7748 42.189 18.7748 43.8187C18.7748 45.4484 20.0959 46.7695 21.7256 46.7695Z" fill="#F3EBC0"/>
<path d="M12.3055 35.9196C13.2405 35.9196 13.9984 35.1617 13.9984 34.2267C13.9984 33.2918 13.2405 32.5339 12.3055 32.5339C11.3706 32.5339 10.6127 33.2918 10.6127 34.2267C10.6127 35.1617 11.3706 35.9196 12.3055 35.9196Z" fill="#F3EBC0"/>
<path d="M13.9984 43.2249C14.9333 43.2249 15.6912 42.4669 15.6912 41.532C15.6912 40.5971 14.9333 39.8392 13.9984 39.8392C13.0635 39.8392 12.3056 40.5971 12.3056 41.532C12.3056 42.4669 13.0635 43.2249 13.9984 43.2249Z" fill="#F3EBC0"/>
<path d="M9.92311 22.0527C10.415 22.0527 10.8138 21.6539 10.8138 21.162C10.8138 20.6701 10.415 20.2713 9.92311 20.2713C9.43119 20.2713 9.03241 20.6701 9.03241 21.162C9.03241 21.6539 9.43119 22.0527 9.92311 22.0527Z" fill="#F3EBC0"/>
<path d="M11.7045 8.07758C12.1964 8.07758 12.5952 7.67879 12.5952 7.18687C12.5952 6.69495 12.1964 6.29617 11.7045 6.29617C11.2126 6.29617 10.8138 6.69495 10.8138 7.18687C10.8138 7.67879 11.2126 8.07758 11.7045 8.07758Z" fill="#F3EBC0"/>
<path d="M6.08891 35.1174C6.58083 35.1174 6.97961 34.7187 6.97961 34.2267C6.97961 33.7348 6.58083 33.3361 6.08891 33.3361C5.59699 33.3361 5.19821 33.7348 5.19821 34.2267C5.19821 34.7187 5.59699 35.1174 6.08891 35.1174Z" fill="#F3EBC0"/>
<path d="M29.5387 45.7303C30.0306 45.7303 30.4294 45.3315 30.4294 44.8396C30.4294 44.3477 30.0306 43.9489 29.5387 43.9489C29.0468 43.9489 28.648 44.3477 28.648 44.8396C28.648 45.3315 29.0468 45.7303 29.5387 45.7303Z" fill="#F3EBC0"/>
<path d="M10.358 15.1302C11.293 15.1302 12.0509 14.3723 12.0509 13.4374C12.0509 12.5025 11.293 11.7445 10.358 11.7445C9.42308 11.7445 8.66516 12.5025 8.66516 13.4374C8.66516 14.3723 9.42308 15.1302 10.358 15.1302Z" fill="#F3EBC0"/>
<path d="M4.94353 20.2713C6.14743 20.2713 7.12338 19.2953 7.12338 18.0914C7.12338 16.8875 6.14743 15.9116 4.94353 15.9116C3.73963 15.9116 2.76367 16.8875 2.76367 18.0914C2.76367 19.2953 3.73963 20.2713 4.94353 20.2713Z" fill="#F3EBC0"/>
</svg>
