<svg width="100%" height='112'
preserveAspectRatio="xMinYMin slice"
 viewBox="0 0 263 112" fill="none" xmlns="http://www.w3.org/2000/svg">
<path d="M-30.119 6.85476L-28.1008 6.31855V3.22835L-26.9435 0.40625L-25.8709 3.62344V6.21977L-24.883 8.6891L-23.5846 7.10874L-22.5262 3.00258L-21.7782 6.34676L-21.4112 10.2413H-18.9132L-18.0523 8.57624V7.81426L-17.2479 5.09094L-16.881 8.30814L-17.4314 9.05599L-16.881 10.2271L-15.8225 9.47929V8.36459L-15.385 6.50199L-14.891 8.78789V9.71919L-14.143 10.8903L-13.3386 12.1321V13.275L-12.5624 12.9928V11.8216L-11.9414 11.2713L-12.1672 10.3965L-11.7156 9.22531L-11.1229 10.6364L-11.4616 11.0456L-11.1934 12.2167V12.7953L-10.7841 13.6278L-10.4595 12.9646L-10.5301 12.499L-10.1632 11.6664L-9.99381 12.7388L-10.1632 13.1339L-9.90913 14.0229L-9.45752 13.5431L-9.17526 12.2873L-9.03413 13.5149L-8.59662 14.4744L-8.41315 15.1376L-8.04622 14.3756L-7.5946 13.3315L-7.41113 15.1376V15.9701L-7.17121 16.4217L-6.35266 17.5646L-6.19741 18.1855L-5.67523 17.8468L-5.51999 16.6474L-5.02603 15.7161L-4.87079 17.226V18.3407C-4.87079 18.3407 -4.43329 19.0885 -4.40506 19.1732C-4.37683 19.2579 -4.30627 20.1609 -4.30627 20.1609L-3.78409 19.4554V18.8346L-3.62885 17.8468L-3.41715 18.8346L-3.16312 19.5119L-3.31836 20.5278L-2.64093 21.8542L-2.33045 21.0781L-2.48569 20.1468L-2.14698 18.4395L-1.70948 20.1468V20.7677L-1.42722 22.0376L-1.24375 23.237C-1.0171 22.8767 -0.809813 22.5047 -0.622775 22.1223C-0.622775 22.0235 -0.778019 21.318 -0.778019 21.318L-0.227612 20.1186L-0.015915 22.1647V23.0959C-0.015915 23.0959 0.266344 24.0555 0.29457 24.2389C0.322796 24.4223 1.38127 24.2389 1.38127 24.2389V22.9125L1.74821 21.9248L1.95991 23.3358V24.38L2.39741 25.6217L2.94781 24.9726V23.4628L3.38532 25.6217V26.7646L3.6958 27.7241L4.18976 26.6094L4.62727 25.1278V26.4542L5.02243 27.4138V28.0346L5.95389 27.7241V26.5812L6.20792 25.2548L6.67365 26.6659V27.8088L7.16761 29.7843L7.76035 29.1917L7.94382 28.7119L7.63333 28.0346L8.29664 26.6941L8.66358 28.3027C8.66358 28.3027 8.43777 28.8953 8.43777 28.9377C8.43777 28.98 8.73415 29.8407 8.73415 29.8407L9.22811 30.8849L9.10108 31.1812L9.41157 30.7297V30.0806L9.58093 29.5585L9.79263 30.1653V30.6874L10.0043 31.4493H11.0063L11.5285 30.7156L12.1072 29.1776L12.6293 31.026L12.2342 32.0843L12.841 33.961L13.462 33.326C13.5755 32.8643 13.6324 32.3904 13.6314 31.915L14.5064 28.8671V33.7211L14.8592 34.9628L15.5931 34.1727L15.8894 33.1144L16.3269 30.9414L16.7362 33.2978L16.4116 34.7089L16.7362 36.5856H18.1475V35.5555L18.2887 33.6788C18.4499 33.1981 18.6384 32.727 18.8532 32.2677V37.7426C18.8532 37.7426 19.7 38.8291 19.7 38.7162C19.7 38.6034 20.2645 37.3052 20.2645 37.3052L20.7866 35.5132L21.1395 37.9261V39.6334L21.5629 40.7764C21.5629 40.7764 22.3109 39.6052 22.3391 39.5205C22.3673 39.4359 22.0427 38.4905 22.1274 38.3494C22.2121 38.2083 22.8895 36.0917 22.8895 36.0917L23.4822 38.7022L22.8895 39.8451L23.4117 41.5243L24.2585 42.7236C24.7038 42.3228 25.1278 41.899 25.5286 41.4537C25.4079 40.9933 25.351 40.5185 25.3593 40.0426C25.4439 39.7181 25.825 37.8414 25.825 37.8414L26.206 40.9598C26.0652 41.2007 25.983 41.4714 25.9661 41.75C25.9661 42.0745 26.206 44.1347 26.206 44.1347C26.206 44.1347 27.2081 43.5703 27.2081 43.4009C27.2081 43.2316 27.2927 41.6089 27.2927 41.496C27.2927 41.3831 27.6738 40.085 27.6738 40.085L28.0548 41.7923V42.9353L28.4641 44.3464V45.7574L29.2262 47.4648L30.2565 46.0537V43.6408L31.6678 40.085C31.7525 39.8733 31.9924 43.2316 32.0206 43.3163C32.0488 43.4009 31.4984 44.9954 31.4984 45.0801C31.4984 45.1647 31.9924 47.1402 31.9924 47.1402L31.9077 48.2831L32.9662 49.285L34.3775 47.874L34.067 45.6304L34.7303 41.877L35.436 46.3359L35.0831 48.4101C35.2803 49.369 35.4123 50.3402 35.4783 51.3169C35.4094 52.4049 35.4519 53.4971 35.6053 54.5765L36.7485 57.3986L37.3694 55.7194L37.1436 53.9979L38.0186 50.9501V49.0169L38.6819 51.7544V53.3911L39.0771 56.439V57.4126L40.0932 56.7494L40.1779 54.4636L41.1517 51.9942V50.7102L41.8574 55.2961C41.813 55.9256 41.813 56.5574 41.8574 57.1869C41.942 57.455 42.2525 58.9083 42.2525 58.9083L42.8312 58.0335L43.3534 55.4372L44.1013 53.8568V55.8887L43.8332 58.2311L44.1013 59.8679L45.2445 60.4887L46.1195 59.2047L45.8937 57.3139L46.684 55.4231L47.2627 59.3881L47.9683 61.7304L50.3534 62.9157C50.3534 62.9157 51.4966 60.0936 51.4966 59.9243C51.4966 59.755 51.7082 56.5801 51.7082 56.5801L52.6538 55.4372V58.612L52.1316 60.0231L52.6538 62.0973L52.2163 63.2403L53.1478 65.6673L52.3574 66.3728L53.4583 68.574L54.7425 66.2317L54.4744 64.9053C54.4744 64.9053 55.4905 63.4096 55.3494 63.1838C55.202 62.7849 55.0887 62.3743 55.0107 61.9562C55.0107 61.9562 55.9986 56.9611 56.055 57.1869L56.9865 61.6035C56.9376 61.8326 56.8618 62.0552 56.7607 62.2667C56.6055 62.5771 57.6357 64.4256 57.6357 64.4256L57.1982 65.3569L57.6357 67.1207C57.6357 67.1207 58.92 64.5667 58.8635 64.4256C58.6481 63.7452 58.4738 63.0526 58.3414 62.3513L59.174 59.6139L59.9644 62.6194L60.4865 63.8894V65.9636L61.8978 67.0642L63.6196 63.72V60.8979L63.9724 59.3599C63.9724 59.3599 64.4946 60.9544 64.5511 61.166C64.5213 61.5132 64.4453 61.8549 64.3253 62.182L65.3837 66.8102L66.4422 64.9194C66.35 64.4541 66.2933 63.9824 66.2729 63.5084C66.2729 63.2403 67.0209 60.5593 67.0209 60.5593L67.9523 63.7765L67.5148 64.609L68.3898 67.4311L71.2124 68.5176L72.4967 65.6108V64.5102L72.9342 62.8734L73.8092 65.3427C73.8092 65.3427 73.414 65.7378 73.4564 65.8789C73.4987 66.02 74.1197 68.5317 74.1197 68.5317L75.7004 68.0096V65.8507C75.7004 65.8507 76.279 64.2704 76.3637 64.5243L77.6479 68.5317V69.463L79.5391 69.7734C79.7803 68.8861 79.9735 67.9865 80.1177 67.0783C80.1177 66.8102 80.8234 65.752 80.8234 65.6673C80.8234 65.5826 80.2447 63.7342 80.2447 63.7342L80.8234 60.2489L81.6137 63.6918V69.5195C81.6137 69.5195 83.025 67.4029 83.025 67.2759C83.025 67.1489 83.2932 64.99 83.2932 64.99L84.0411 68.0802L85.2266 70.8176L85.8476 68.7857L85.5371 67.8121C85.6736 67.172 85.8479 66.5406 86.0593 65.9213L87.1178 68.9691L87.7388 71.4385H89.3759L89.6722 70.4225L89.4182 68.0943L90.2509 66.0201L90.8718 68.052V69.0679L91.1823 70.0416V71.8054L92.763 73.2164C92.6075 72.8221 92.5032 72.4096 92.4525 71.9888C92.4525 71.7207 93.0311 70.1403 93.0311 69.9992C93.0311 69.8581 93.3416 67.544 93.3416 67.544L93.9626 70.2532V71.9747L94.6682 73.5127L95.1057 72.4121V70.5213L96.3336 67.544L96.7287 71.0011L96.6017 71.9324L97.392 73.8796L98.8033 75.6011L99.9465 74.5851L99.5513 73.9643C99.5513 73.9643 100.836 69.6041 100.963 69.7311C101.09 69.8581 101.668 72.779 101.711 73.0894C101.652 73.7868 101.548 74.4797 101.4 75.1637L101.979 76.3489L104.801 77.8447V75.7281L105.775 71.4103L107.186 74.1336L106.481 77.0403C106.481 77.0403 108.245 81.5416 108.245 81.2735C108.245 81.0054 109.924 74.9238 109.924 74.9238V71.5796L110.983 68.4894L112.126 73.16L111.251 74.4017L112.14 78.1128V80.1447L113.467 83.0514L112.846 84.5471L114.342 89.0484L115.485 86.0146C115.485 86.0146 114.963 84.1097 114.963 83.8416C114.963 83.5735 116.289 81.3723 116.021 81.1042C115.753 80.8361 115.231 80.2293 115.499 79.8766C115.767 79.5238 117.447 72.7367 117.447 72.7367L118.773 78.2115L117.941 79.6226L118.773 82.4447L119.775 84.2932L120.876 80.7937L121.426 77.9716L122.4 80.8784V83.4324H123.896L125.039 81.3582L124.729 80.0318C124.729 79.8624 125.308 77.9999 125.392 78.6207C125.477 79.2416 126.013 81.6686 126.013 81.6686L125.745 82.4588L126.013 84.533L127.425 86.9177C127.613 86.4037 127.759 85.8751 127.862 85.3373C127.862 85.168 127.425 84.3214 127.425 84.3214C127.425 84.3214 128.045 80.3987 128.088 80.6668L128.624 83.8839L128.455 84.8999C128.455 84.8999 129.076 86.311 129.118 86.4944C129.623 86.7885 130.151 87.0387 130.699 87.2422L131.32 84.7729L131.63 82.5293L132.025 83.8134V85.3514L132.505 87.341L133.126 88.8791L133.437 88.3005L133.211 87.1576L134.312 83.8134L136.344 89.4576L135.723 89.9374L136.344 91.2637L137.318 90.1208C137.258 89.6453 137.168 89.174 137.05 88.7097C136.979 88.7097 137.318 85.3373 137.318 85.3373L138.108 88.9073L137.84 90.2337L138.376 91.8705L139.618 92.2233L139.519 91.1226L139.999 88.5686L140.55 90.6429V92.7595L142.469 94.3539L142.243 93.1686L141.89 92.0257L142.469 87.3128L143.711 93.7472V95.0736L144.812 92.5619L145.165 90.1349L146.138 95.0736L146.971 93.4932L147.409 90.7981L147.677 93.6202L148.566 97.0208L150.288 95.7932C150.323 94.6264 150.427 93.4627 150.598 92.3079C150.725 92.3079 151.431 96.146 151.431 96.146L152.659 111.512H-37.0061L-30.119 6.85476Z" fill="#0E4764"/>
<path d="M291.714 12.4144L288.722 11.8358V8.53398L287 5.48611L285.419 8.92908V11.7512L284.008 14.4039L282.089 12.7107L280.522 8.32229L279.421 11.8923L278.871 16.1254H275.159L273.875 14.3334V13.4585L272.675 10.5518L272.125 13.9947L272.958 14.7849L272.125 16.0407L270.559 15.2505V14.0653L269.909 12.0757L269.175 14.5168V15.5046L268.075 16.7604L266.875 18.0868V19.3144L265.732 19.0181V17.7622L264.815 17.1696L265.153 16.2242L264.49 14.9824L263.615 16.5064L264.123 16.9438L263.728 18.1855L263.827 18.8064L263.234 19.7095L262.754 18.9899L262.867 18.496L262.317 17.5929L262.062 18.7358L262.317 19.145L261.95 20.0905L261.286 19.5825L260.877 18.1714L260.665 19.4837L260.016 20.5138L259.734 21.2334L259.183 20.415L258.52 19.3003L258.238 21.2193V22.1224L257.899 22.6021L256.671 23.8156L256.445 24.4788L255.669 24.1119L255.443 22.8279L254.71 21.8402L254.484 23.4629V24.7469C254.484 24.7469 253.835 25.5371 253.792 25.6359C253.75 25.7347 253.651 26.6942 253.651 26.6942L252.875 25.9322V25.269L252.649 24.2107L252.325 25.269L251.958 26.0028L252.183 27.0893L251.167 28.5003L250.702 27.6678L250.927 26.68L250.419 24.8598L249.77 26.68V27.3432L249.361 28.7543L249.079 30.0383C248.749 29.6621 248.443 29.2663 248.161 28.8531C248.161 28.7543 248.387 27.9923 248.387 27.9923L247.554 26.7083L247.23 28.8954V29.8831C247.23 29.8831 246.82 30.9132 246.764 31.1108C246.708 31.3083 245.155 31.1108 245.155 31.1108V29.6997L244.605 28.6414L244.28 30.0525V31.1672L243.631 32.5077L242.798 31.8163V30.1935L242.149 32.5077V33.7353L241.683 34.7654L240.949 33.5801L240.3 31.9856V33.3966L239.707 34.4267V35.0899L238.296 34.7654V33.5378L237.929 32.1267L237.238 33.6506V34.8782L236.504 36.9948L235.629 36.3599L235.347 35.8519L235.812 35.1322L234.824 33.7212L234.274 35.4426C234.274 35.4426 234.613 36.0776 234.613 36.1341C234.613 36.1905 234.161 37.0936 234.161 37.0936L233.413 38.2083L233.597 38.5188L233.131 38.039V37.3476L232.891 36.7832L232.58 37.4322L232.679 37.9967L232.369 38.8151H230.887L230.097 38.039L229.25 36.3881L228.459 38.3635L229.052 39.4924L228.149 41.496L227.232 40.8188C227.034 40.6777 226.963 39.3089 226.963 39.3089L225.651 36.0494V41.2421L225.129 42.5685L224.042 41.7218L223.59 40.593L222.913 38.1519L222.306 40.6635C222.306 40.6635 222.786 42.0746 222.786 42.2298C222.786 42.385 222.306 44.2476 222.306 44.2476H220.217V43.147L220.006 41.1292C219.76 40.641 219.481 40.1696 219.173 39.7181V45.5599C219.173 45.5599 217.903 46.7169 217.903 46.604C217.65 46.1194 217.372 45.6483 217.07 45.193L216.28 43.274L215.758 45.8562V47.6764L215.123 48.8899C215.123 48.8899 214.008 47.6341 213.965 47.4789C213.923 47.3237 214.403 46.3783 214.276 46.2231C214.149 46.0678 213.147 43.7961 213.147 43.7961L212.272 46.6182L213.147 47.8458L212.356 49.6378L211.086 50.9218C211.086 50.9218 209.209 49.666 209.209 49.5108C209.209 49.3556 209.604 48.4102 209.477 48.0997C209.35 47.7893 208.786 45.7433 208.786 45.7433L208.221 49.0734C208.422 49.3136 208.545 49.6087 208.574 49.92C208.574 50.2728 208.221 52.4599 208.221 52.4599C208.221 52.4599 206.739 51.8672 206.739 51.6697C206.739 51.4721 206.612 49.7507 206.612 49.6237C206.612 49.4967 206.048 48.0574 206.048 48.0574L205.483 49.8777V51.1053L204.877 52.6716L204.961 54.2378L203.832 56.0581L202.308 54.52V51.9801L200.177 48.1703C199.937 49.3117 199.763 50.466 199.655 51.6274C199.655 51.7261 200.445 53.4194 200.445 53.5182C200.445 53.617 199.697 55.7194 199.697 55.7194L199.824 56.947L198.258 58.0194L196.098 56.5096L196.55 54.1108L195.562 50.1034L194.518 54.8587L195.04 57.074C194.746 58.093 194.548 59.1369 194.447 60.1924C194.546 61.3577 194.48 62.5311 194.249 63.6777L192.542 66.6551L191.624 64.863L191.949 63.0287L190.637 59.7691V57.6949L189.649 60.6158V62.3655L189.183 65.6673V66.7115L187.673 66.0059L187.546 63.5507L186.135 60.9121V59.501L185.09 64.4115C185.157 65.0871 185.157 65.7677 185.09 66.4434C184.963 66.7256 184.497 68.2778 184.497 68.2778L183.651 67.3323L182.86 64.5102L181.745 62.817V64.99L182.141 67.4876L181.745 69.2373L180.038 69.9004L178.725 68.4894L179.05 66.4575L177.878 64.4256L177.032 68.6587L175.987 71.1563L172.459 72.4262C172.459 72.4262 170.751 69.3642 170.751 69.2231C170.751 69.082 170.441 65.6391 170.441 65.6391L169.03 64.4115V67.8121L169.82 69.3642L169.03 71.5796L169.679 72.8072L167.872 75.2765C167.872 75.2765 164.711 73.0471 164.909 72.8072C165.121 72.3894 165.287 71.9493 165.403 71.4949C165.403 71.4949 163.991 66.1612 163.864 66.387L162.453 71.0998C162.525 71.35 162.635 71.5878 162.777 71.8054C163.003 72.1299 161.465 74.1195 161.465 74.1195L162.114 75.1072L161.465 76.998C160.8 76.0928 160.188 75.1506 159.63 74.1759C159.951 73.4594 160.216 72.7186 160.421 71.9606L159.179 69.0397L158.007 72.2428L157.231 73.6538V75.8692L155.185 77.0545L152.63 73.4704V70.4931L152.108 68.8422C152.108 68.8422 151.318 70.5354 151.261 70.7753C151.305 71.1538 151.414 71.5216 151.586 71.8618L150.019 76.8146L148.453 74.7827C148.598 74.2764 148.687 73.756 148.721 73.2305C148.721 72.9483 147.606 70.0698 147.606 70.0698L146.195 73.5127L146.844 74.4017L145.531 77.4919L141.41 78.649L139.646 75.46V74.2747L138.997 72.525L137.685 75.1637C137.685 75.1637 138.277 75.587 138.207 75.7281C138.136 75.8692 137.219 78.5502 137.219 78.5502L134.862 77.9858V75.6716C134.862 75.6716 134.015 73.9784 133.874 74.2606L131.983 78.4937V79.4815L129.16 79.806C128.812 78.8864 128.529 77.9433 128.314 76.9839C128.314 76.7017 127.269 75.5729 127.269 75.4318C127.269 75.2907 128.116 73.3575 128.116 73.3575L127.269 69.6323L126.098 73.3152V79.5379C126.098 79.5379 123.939 77.2802 123.939 77.1391C123.939 76.998 123.543 74.6839 123.543 74.6839L122.428 77.9858L120.664 80.9066L119.747 78.7336L120.199 77.6894C119.988 76.9928 119.724 76.3134 119.408 75.6575L117.842 78.9171L116.924 81.5557H114.497L114.059 80.4692L114.44 77.9716L113.199 75.7563L112.281 77.9293V79.0158L111.83 80.06V81.9508L109.473 83.4606C109.696 83.0466 109.849 82.5984 109.924 82.1343C109.924 81.852 109.078 80.1588 109.078 80.0177C109.078 79.8766 108.626 77.3931 108.626 77.3931L107.709 80.2999V82.1343L106.664 83.7852L106.015 82.5999V80.568L104.18 77.379L103.588 81.076L103.785 82.0637L102.614 84.1379L100.581 85.9723L98.8738 84.8858L99.4666 84.2226C98.8875 82.7025 98.2183 81.2182 97.4625 79.7778C97.3355 79.9612 96.4182 83.0373 96.3476 83.3619C96.4332 84.1121 96.5843 84.8533 96.7992 85.5772L95.9524 86.8472L91.7185 88.4557V86.198L90.3072 81.5839L88.0774 84.406L89.1217 87.5244C89.1217 87.5244 86.5108 92.3361 86.5108 92.0539C86.5108 91.7717 84.0269 85.2668 84.0269 85.2668V81.6827L82.418 78.3667L80.7104 83.3619L82.0229 84.6882L80.7104 88.6533V90.8263L78.7487 93.8883L79.666 95.4969L77.4362 100.309L75.7285 97.0631C76.035 96.3071 76.2988 95.5345 76.5188 94.749C76.5188 94.4668 74.5571 92.1104 74.9523 91.8281C75.3474 91.5459 76.1237 90.8827 75.7426 90.5018C75.3616 90.1208 72.92 82.868 72.92 82.868L70.9583 88.7097L72.2002 90.1207L70.9583 93.1969L69.547 95.1723L67.924 91.4189L67.1054 88.3711L65.6941 91.4895V94.2269H63.4643L61.7566 92.0116L62.2082 90.6005C62.2082 90.4171 61.3615 88.4275 61.2203 89.0484C61.0792 89.6692 60.303 92.3079 60.303 92.3079L60.6981 93.1545L60.303 95.3698L58.2143 97.9098C57.9384 97.3699 57.7208 96.8023 57.565 96.2165C57.565 96.0331 58.2143 95.13 58.2143 95.13C58.2143 95.13 57.2969 90.8968 57.2263 91.2214L56.3796 94.6926L56.6477 95.7791C56.6477 95.7791 55.7304 97.3312 55.6598 97.4723C54.8933 97.7935 54.1059 98.0622 53.3029 98.2766L52.3856 95.638L51.934 93.2392L51.3412 94.6502V96.3011L50.6215 98.4177L49.7041 100.069L49.2525 99.4619L49.5771 98.2343L47.9118 94.5938L44.9057 100.675L45.823 101.197L44.9057 102.609L43.4944 101.381C43.5795 100.844 43.7118 100.315 43.8896 99.8006C44.0025 99.8006 43.4944 96.1883 43.4944 96.1883L42.2666 100.026L42.6617 101.437L41.8714 103.187L40.0226 103.568L40.1778 102.383L39.444 99.6453L38.6254 101.861V104.118L35.8028 105.812L36.1274 104.542L36.6496 103.314L35.8028 98.2625L33.9399 105.177V106.588L32.3028 103.907L31.7806 101.31L30.3693 106.588L29.1273 104.894L28.4782 102.072L28.083 105.134L26.7423 108.704L24.1878 107.378C24.137 106.126 23.986 104.88 23.7362 103.653C23.2393 104.995 22.8245 106.366 22.4942 107.759L20.6595 111.385H301.946L291.714 12.4144Z" fill="#083753"/>
</svg>
